<svg width="126" height="93" viewBox="0 0 126 93" fill="none" xmlns="http://www.w3.org/2000/svg">
<mask id="path-1-inside-1_3_20" fill="white">
<path fill-rule="evenodd" clip-rule="evenodd" d="M88.2993 22.9573L97.033 14.2237L97.0728 14.1841L97.1124 14.1442L97.2766 13.98L97.2731 13.9764C100.114 10.9212 100.047 6.14057 97.0728 3.16641C94.0987 0.192251 89.3181 0.125502 86.2628 2.96616L86.259 2.96232L77.2816 11.9397L77.2828 11.9408L74.0881 15.1355L70.8936 11.941L70.8949 11.9397L61.9175 2.96232L61.9137 2.96616C58.8584 0.125502 54.0778 0.192252 51.1037 3.16641C48.1295 6.14057 48.0628 10.9212 50.9034 13.9764L50.8999 13.98L51.0641 14.1442L51.1037 14.1841L51.1435 14.2237L59.8772 22.9573L59.8788 22.9558L66.37 29.447V41.1356V41.4241H66.3752C66.527 45.5931 69.9546 48.9262 74.1607 48.9262C78.3667 48.9262 81.7943 45.5931 81.9461 41.4241H81.9513V41.1356V29.303L88.2981 22.9562L88.2993 22.9573Z"/>
</mask>
<path d="M97.033 14.2237L95.6237 12.8045L95.6187 12.8094L97.033 14.2237ZM88.2993 22.9573L86.8863 24.3727L88.3005 25.7846L89.7135 24.3716L88.2993 22.9573ZM97.0728 14.1841L98.4821 15.6033L98.492 15.5933L97.0728 14.1841ZM97.1124 14.1442L95.6982 12.73L95.6932 12.735L97.1124 14.1442ZM97.2766 13.98L98.6908 15.3942L100.105 13.9798L98.6907 12.5656L97.2766 13.98ZM97.2731 13.9764L95.8083 12.6146L94.495 14.0271L95.859 15.3908L97.2731 13.9764ZM97.0728 3.16642L95.6586 4.58063V4.58063L97.0728 3.16642ZM86.2628 2.96617L84.8489 4.38069L86.2126 5.74378L87.6247 4.43088L86.2628 2.96617ZM86.259 2.96232L87.6729 1.5478L86.2587 0.134199L84.8447 1.54811L86.259 2.96232ZM77.2816 11.9397L75.8674 10.5255L74.4532 11.9397L75.8674 13.3539L77.2816 11.9397ZM77.2828 11.9409L78.697 13.3551L80.1112 11.9409L78.697 10.5266L77.2828 11.9409ZM74.0881 15.1355L72.6739 16.5498L74.0881 17.964L75.5023 16.5498L74.0881 15.1355ZM70.8936 11.941L69.4793 10.5268L68.0651 11.941L69.4793 13.3552L70.8936 11.941ZM70.8949 11.9397L72.3091 13.3539L73.7233 11.9397L72.3091 10.5255L70.8949 11.9397ZM61.9175 2.96232L63.3317 1.54811L61.9174 0.133805L60.5032 1.54819L61.9175 2.96232ZM61.9137 2.96617L60.5518 4.43088L61.9643 5.74414L63.328 4.38029L61.9137 2.96617ZM51.1037 3.16642L52.5179 4.58063L51.1037 3.16642ZM50.9034 13.9764L52.3175 15.3907L53.6814 14.027L52.3681 12.6146L50.9034 13.9764ZM50.8999 13.98L49.4857 12.5657L48.0713 13.9799L49.4856 15.3942L50.8999 13.98ZM51.0641 14.1442L52.4833 12.735L52.4783 12.73L51.0641 14.1442ZM51.1037 14.1841L49.6844 15.5933L49.6945 15.6033L51.1037 14.1841ZM51.1435 14.2237L52.5578 12.8095L52.5528 12.8045L51.1435 14.2237ZM59.8772 22.9573L58.463 24.3716L59.8772 25.7858L61.2914 24.3716L59.8772 22.9573ZM59.8788 22.9558L61.293 21.5416L59.8788 20.1274L58.4645 21.5416L59.8788 22.9558ZM66.37 29.447H68.37V28.6186L67.7842 28.0328L66.37 29.447ZM66.37 41.4241H64.37V43.4241H66.37V41.4241ZM66.3752 41.4241L68.3739 41.3513L68.3037 39.4241H66.3752V41.4241ZM81.9461 41.4241V39.4241H80.0176L79.9474 41.3513L81.9461 41.4241ZM81.9513 41.4241V43.4241H83.9513V41.4241H81.9513ZM81.9513 29.303L80.5371 27.8888L79.9513 28.4746V29.303H81.9513ZM88.2981 22.9562L89.7112 21.5408L88.2969 20.129L86.8839 21.542L88.2981 22.9562ZM95.6187 12.8094L86.8851 21.5431L89.7135 24.3716L98.4472 15.6379L95.6187 12.8094ZM95.6636 12.7649L95.6237 12.8045L98.4422 15.6428L98.4821 15.6032L95.6636 12.7649ZM95.6932 12.735L95.6536 12.7749L98.492 15.5933L98.5316 15.5534L95.6932 12.735ZM95.8624 12.5658L95.6982 12.73L98.5266 15.5584L98.6908 15.3942L95.8624 12.5658ZM95.859 15.3908L95.8626 15.3944L98.6907 12.5656L98.6871 12.562L95.859 15.3908ZM95.6586 4.58063C97.8689 6.79097 97.9188 10.3446 95.8083 12.6146L98.7378 15.3383C102.309 11.4977 102.225 5.49018 98.487 1.7522L95.6586 4.58063ZM87.6247 4.43088C89.8946 2.32038 93.4483 2.37029 95.6586 4.58063L98.487 1.7522C94.749 -1.98578 88.7415 -2.06937 84.901 1.50145L87.6247 4.43088ZM84.8451 4.37684L84.8489 4.38069L87.6767 1.55165L87.6729 1.5478L84.8451 4.37684ZM78.6958 13.3539L87.6732 4.37653L84.8447 1.54811L75.8674 10.5255L78.6958 13.3539ZM78.697 10.5266L78.6958 10.5255L75.8674 13.3539L75.8686 13.3551L78.697 10.5266ZM75.5023 16.5498L78.697 13.3551L75.8686 10.5266L72.6739 13.7213L75.5023 16.5498ZM69.4793 13.3552L72.6739 16.5498L75.5023 13.7213L72.3078 10.5268L69.4793 13.3552ZM72.3078 13.3552L72.3091 13.3539L69.4807 10.5255L69.4793 10.5268L72.3078 13.3552ZM72.3091 10.5255L63.3317 1.54811L60.5033 4.37653L69.4807 13.3539L72.3091 10.5255ZM60.5032 1.54819L60.4994 1.55204L63.328 4.38029L63.3318 4.37645L60.5032 1.54819ZM63.2755 1.50145C59.435 -2.06937 53.4274 -1.98578 49.6895 1.7522L52.5179 4.58063C54.7282 2.37029 58.2819 2.32038 60.5518 4.43088L63.2755 1.50145ZM49.6895 1.7522C45.9515 5.49018 45.8679 11.4977 49.4387 15.3383L52.3681 12.6146C50.2576 10.3446 50.3075 6.79097 52.5179 4.58063L49.6895 1.7522ZM49.4893 12.5621L49.4857 12.5657L52.314 15.3943L52.3175 15.3907L49.4893 12.5621ZM49.4856 15.3942L49.6499 15.5584L52.4783 12.73L52.3141 12.5658L49.4856 15.3942ZM49.6449 15.5534L49.6845 15.5933L52.5229 12.7749L52.4833 12.735L49.6449 15.5534ZM49.6945 15.6033L49.7343 15.6429L52.5528 12.8045L52.5129 12.7649L49.6945 15.6033ZM49.7293 15.6379L58.463 24.3716L61.2914 21.5431L52.5578 12.8095L49.7293 15.6379ZM61.2914 24.3716L61.293 24.37L58.4645 21.5416L58.463 21.5431L61.2914 24.3716ZM67.7842 28.0328L61.293 21.5416L58.4645 24.37L64.9558 30.8612L67.7842 28.0328ZM68.37 41.1356V29.447H64.37V41.1356H68.37ZM68.37 41.4241V41.1356H64.37V41.4241H68.37ZM66.3752 39.4241H66.37V43.4241H66.3752V39.4241ZM74.1607 46.9262C71.0348 46.9262 68.4867 44.4487 68.3739 41.3513L64.3766 41.4969C64.5674 46.7374 68.8744 50.9262 74.1607 50.9262V46.9262ZM79.9474 41.3513C79.8346 44.4487 77.2865 46.9262 74.1607 46.9262V50.9262C79.4469 50.9262 83.7539 46.7374 83.9448 41.4969L79.9474 41.3513ZM81.9513 39.4241H81.9461V43.4241H81.9513V39.4241ZM79.9513 41.1356V41.4241H83.9513V41.1356H79.9513ZM79.9513 29.303V41.1356H83.9513V29.303H79.9513ZM86.8839 21.542L80.5371 27.8888L83.3655 30.7172L89.7124 24.3704L86.8839 21.542ZM89.7123 21.5419L89.7112 21.5408L86.8851 24.3716L86.8863 24.3727L89.7123 21.5419Z" fill="white" mask="url(#path-1-inside-1_3_20)"/>
<path d="M83.7376 65.148C82.6624 64.2215 81.7941 63.0844 81.184 61.8108L68.6091 66.3877C70.0191 69.804 72.2137 72.8461 75.0205 75.2646C78.0803 77.9011 81.7654 79.7084 85.7233 80.5136C89.6812 81.3189 93.7795 81.0951 97.6262 79.8638C101.473 78.6324 104.939 76.4347 107.694 73.4808C110.448 70.5269 112.399 66.9156 113.359 62.9923C114.319 59.0691 114.256 54.9652 113.177 51.0731C112.098 47.181 110.038 43.631 107.194 40.7626C104.351 37.8941 100.819 35.8033 96.9363 34.69L96.9106 34.6826L96.8896 34.6754L96.8883 34.6749L96.888 34.6748L96.887 34.6745L96.8863 34.6742L96.8674 34.6683C96.8462 34.6617 96.8104 34.651 96.7611 34.6376C96.6623 34.6108 96.5104 34.5734 96.3148 34.5372C95.9223 34.4644 95.3628 34.3979 94.7096 34.4257C93.424 34.4805 91.7834 34.8976 90.293 36.368C89.109 37.8435 88.5741 39.2067 88.4332 40.4112C88.291 41.6275 88.5428 42.7479 89.0297 43.7377C90.0275 45.7659 91.9684 47.1578 93.2554 47.5268C94.9415 48.0103 96.4754 48.9183 97.7103 50.1641C98.9452 51.4098 99.8398 52.9516 100.309 54.6418C100.777 56.3321 100.805 58.1144 100.388 59.8183C99.9707 61.5221 99.1236 63.0904 97.9273 64.3733C96.731 65.6561 95.2256 66.6106 93.555 67.1454C91.8844 67.6801 90.1046 67.7773 88.3857 67.4276C86.6668 67.0779 85.0664 66.293 83.7376 65.148Z" stroke="white" stroke-width="2"/>
<path d="M43.2214 65.148C44.2966 64.2215 45.1649 63.0844 45.775 61.8108L58.3498 66.3877C56.9398 69.804 54.7453 72.8461 51.9384 75.2646C48.8787 77.9011 45.1936 79.7084 41.2357 80.5136C37.2778 81.3189 33.1795 81.0951 29.3328 79.8638C25.4861 78.6324 22.0196 76.4347 19.2651 73.4808C16.5105 70.5269 14.5599 66.9156 13.5999 62.9923C12.6399 59.0691 12.7026 54.9652 13.7819 51.0731C14.8613 47.181 16.9213 43.631 19.7648 40.7626C22.6083 37.8941 26.1402 35.8033 30.0227 34.69L30.0483 34.6826L30.0694 34.6754L30.0707 34.6749L30.071 34.6748L30.072 34.6745L30.0727 34.6742L30.0916 34.6683C30.1127 34.6617 30.1486 34.651 30.1979 34.6376C30.2967 34.6108 30.4486 34.5734 30.6441 34.5372C31.0367 34.4644 31.5962 34.3979 32.2494 34.4257C33.535 34.4805 35.1756 34.8976 36.666 36.368C37.85 37.8435 38.3849 39.2067 38.5258 40.4112C38.668 41.6275 38.4162 42.7479 37.9293 43.7377C36.9314 45.7659 34.9906 47.1578 33.7036 47.5268C32.0175 48.0103 30.4836 48.9183 29.2487 50.1641C28.0138 51.4098 27.1192 52.9516 26.6504 54.6418C26.1816 56.3321 26.1544 58.1144 26.5713 59.8183C26.9883 61.5221 27.8354 63.0904 29.0317 64.3733C30.228 65.6561 31.7334 66.6106 33.404 67.1454C35.0746 67.6801 36.8544 67.7773 38.5733 67.4276C40.2922 67.0779 41.8926 66.293 43.2214 65.148Z" stroke="white" stroke-width="2"/>
<ellipse cx="52.8034" cy="41.1075" rx="7.79067" ry="7.79066" fill="white"/>
<ellipse rx="7.79067" ry="7.79066" transform="matrix(-1 0 0 1 74.1556 62.4597)" fill="white"/>
<ellipse cx="52.8034" cy="62.4597" rx="7.79067" ry="7.79066" fill="white"/>
<ellipse cx="74.1556" cy="41.1075" rx="7.79067" ry="7.79066" fill="white"/>
</svg>
